<svg xmlns="http://www.w3.org/2000/svg" xmlns:xlink="http://www.w3.org/1999/xlink" version="1.1" x="0px" y="0px" viewBox="0 0 53.5 71.25" enable-background="new 0 0 53.5 71.25" xml:space="preserve"><path d="M45.85,17.837c-0.001-0.05,0.003-0.1-0.003-0.15L44.83,9.489c-0.102-0.823-0.853-1.408-1.673-1.304  c-0.822,0.102-1.406,0.851-1.304,1.673l0.538,4.338c-4.625-3.439-10.203-5.299-16.065-5.299c0,0,0,0,0,0  c-7.208,0-13.988,2.811-19.091,7.914c-0.586,0.585-0.586,1.536,0,2.121c0.586,0.586,1.535,0.586,2.121,0  c4.537-4.537,10.564-7.035,16.971-7.035c5.313,0,10.363,1.724,14.521,4.898l-4.29,0.532c-0.822,0.102-1.406,0.851-1.304,1.673  c0.094,0.759,0.741,1.315,1.487,1.315c0.062,0,0.124-0.003,0.187-0.011l7.618-0.945C45.295,19.265,45.867,18.595,45.85,17.837  C45.849,17.787,45.851,17.859,45.85,17.837z"></path><path d="M43.223,52.986c-4.536,4.536-10.563,7.035-16.97,7.035c-5.313-0.001-10.362-1.725-14.521-4.899l4.29-0.532  c0.822-0.102,1.406-0.851,1.304-1.673s-0.853-1.404-1.673-1.304l-7.617,0.945c-0.801,0.096-1.405,0.87-1.304,1.673l1.016,8.199  c0.094,0.76,0.741,1.315,1.487,1.315c0.062,0,0.124-0.004,0.187-0.012c0.822-0.102,1.406-0.851,1.304-1.673l-0.538-4.341  c4.625,3.44,10.204,5.3,16.066,5.301c0,0,0,0,0.001,0c7.208,0,13.987-2.811,19.09-7.914c0.586-0.586,0.586-1.535,0-2.121  S43.808,52.4,43.223,52.986C38.687,57.522,43.808,52.4,43.223,52.986z"></path><path d="M36.002,36.646l-8.518-4.461L27.57,26.8c0-0.975-0.719-1.767-1.604-1.767h-0.205c-0.886,0-1.604,0.792-1.604,1.767  l0.09,5.434l-8.325,4.413c-0.771,0.41-1.077,1.467-0.684,2.361l0.012,0.028c0.139,0.313,0.378,0.447,1.75,0.066l7.318-1.95  l0.11,5.342l-2.267,2.37c-0.065,0.067-0.102,0.159-0.102,0.255v1.031c0,0.307,0.328,0.451,0.555,0.318l3.197-1.246l3.217,1.246  c0.229,0.133,0.556-0.012,0.556-0.318v-1.031c0-0.097-0.037-0.186-0.102-0.255l-2.186-2.284l0.115-5.508l7.512,2.03  c1.328,0.336,1.611,0.247,1.75-0.067l0.011-0.027C37.077,38.112,36.771,37.056,36.002,36.646z"></path></svg>